<svg width="687" height="247" viewBox="0 0 687 247" fill="none" xmlns="http://www.w3.org/2000/svg">
<path d="M288.495 223.254C308.421 223.254 327.53 215.339 341.619 201.25C355.708 187.161 363.623 168.052 363.623 148.126C363.623 128.201 355.708 109.092 341.619 95.003C327.53 80.9138 308.421 72.9985 288.495 72.9985L288.495 148.126V223.254Z" fill="#006C99"/>
<path d="M158.703 246.018C145.564 246.018 133.671 243.3 123.024 237.863C112.377 232.426 103.995 225.177 97.8791 216.116C91.7628 206.828 88.7046 196.748 88.7046 185.874H131.179C131.406 191.99 134.124 197.087 139.334 201.165C144.771 205.016 151.454 206.941 159.382 206.941C167.764 206.941 174.334 205.129 179.091 201.505C184.074 197.654 186.566 192.67 186.566 186.554C186.566 181.796 184.98 177.945 181.809 175C178.864 172.056 175.353 169.904 171.275 168.544C167.424 167.185 161.308 165.373 152.926 163.108C133.445 158.124 118.493 151.328 108.073 142.72C97.6526 133.885 92.4424 121.426 92.4424 105.342C92.4424 94.6951 95.3873 85.0675 101.277 76.4593C107.167 67.6246 115.209 60.7153 125.403 55.7317C135.823 50.5214 147.376 47.9163 160.062 47.9163C172.295 47.9163 183.508 50.5214 193.702 55.7317C204.122 60.9419 212.391 68.0776 218.507 77.1389C224.624 85.9736 227.682 95.8277 227.682 106.701L185.207 106.361C185.207 100.245 182.715 95.4879 177.731 92.09C172.974 88.4655 167.084 86.6532 160.062 86.6532C153.04 86.6532 147.036 88.3522 142.053 91.7502C137.296 94.9216 134.917 99.339 134.917 105.002C134.917 109.306 136.389 112.818 139.334 115.536C142.279 118.254 145.677 120.293 149.528 121.652C153.606 122.785 159.835 124.484 168.217 126.749C180.223 129.921 190.191 133.205 198.119 136.603C206.048 140.001 212.957 145.665 218.847 153.593C224.963 161.522 228.021 172.282 228.021 185.874C228.021 196.748 224.85 206.828 218.507 216.116C212.391 225.177 204.009 232.426 193.362 237.863C182.715 243.3 171.162 246.018 158.703 246.018Z" fill="#1E1E1E"/>
<path d="M347.853 246.018C329.731 246.018 312.967 241.601 297.563 232.766C282.385 223.705 270.266 211.585 261.205 196.408C252.37 181.23 247.953 164.807 247.953 147.137C247.953 129.015 252.37 112.365 261.205 97.1869C270.266 82.0093 282.385 70.1164 297.563 61.5082C312.967 52.6735 329.731 48.2561 347.853 48.2561C365.976 48.2561 382.626 52.6735 397.803 61.5082C413.207 70.1164 425.327 82.0093 434.162 97.1869C443.223 112.365 447.754 129.015 447.754 147.137C447.754 164.807 443.223 181.23 434.162 196.408C425.327 211.585 413.207 223.705 397.803 232.766C382.626 241.601 365.976 246.018 347.853 246.018ZM347.853 205.922C358.5 205.922 368.241 203.43 377.076 198.447C385.91 193.463 392.82 186.554 397.803 177.719C403.014 168.658 405.619 158.464 405.619 147.137C405.619 135.357 403.014 125.05 397.803 116.216C392.82 107.154 385.91 100.245 377.076 95.4879C368.241 90.7308 358.5 88.3522 347.853 88.3522C337.206 88.3522 327.579 90.7308 318.97 95.4879C310.362 100.245 303.453 107.154 298.243 116.216C293.259 125.05 290.767 135.357 290.767 147.137C290.767 158.464 293.259 168.658 298.243 177.719C303.453 186.554 310.362 193.463 318.97 198.447C327.805 203.43 337.433 205.922 347.853 205.922Z" fill="#1E1E1E"/>
<path d="M478.919 0.00488281H571.344V39.7612H521.734V93.4492H567.267V133.545H521.734V240.921H478.919V0.00488281Z" fill="#1E1E1E"/>
<path d="M613.883 92.7696H585V53.0133H613.883V0.00488281H656.357V53.0133H686.259V92.7696H656.357V201.165H685.24V240.921H613.883V92.7696Z" fill="#1E1E1E"/>
<path d="M0.207642 216.295C0.207642 199.586 13.7529 186.041 30.4618 186.041V186.041C47.1707 186.041 60.7159 199.586 60.7159 216.295V216.295C60.7159 233.004 47.1707 246.549 30.4618 246.549V246.549C13.7529 246.549 0.207642 233.004 0.207642 216.295V216.295Z" fill="#006C99"/>
</svg>
